<svg preserveAspectRatio="none" overflow="visible" style="display: block;" width="13.3333" height="13.3333" viewBox="0 0 13.3333 13.3333" fill="none" xmlns="http://www.w3.org/2000/svg">
<g id="Vector">
<path d="M7.33333 3.33333C7.33333 2.22876 6.4379 1.33333 5.33333 1.33333C4.22876 1.33333 3.33333 2.22876 3.33333 3.33333C3.33333 4.4379 4.22876 5.33333 5.33333 5.33333C6.4379 5.33333 7.33333 4.4379 7.33333 3.33333ZM8.66667 3.33333C8.66667 5.17428 7.17428 6.66667 5.33333 6.66667C3.49238 6.66667 2 5.17428 2 3.33333C2 1.49238 3.49238 0 5.33333 0C7.17428 0 8.66667 1.49238 8.66667 3.33333Z" fill="currentColor"/>
<path d="M0 12.6667V11.3333C0 10.4493 0.351441 9.60168 0.976562 8.97656C1.60168 8.35144 2.44928 8 3.33333 8H5.5332C5.90139 8 6.19987 8.29848 6.19987 8.66667C6.19987 9.03486 5.90139 9.33333 5.5332 9.33333H3.33333C2.8029 9.33333 2.29434 9.5442 1.91927 9.91927C1.5442 10.2943 1.33333 10.8029 1.33333 11.3333V12.6667C1.33333 13.0349 1.03486 13.3333 0.666667 13.3333C0.298477 13.3333 0 13.0349 0 12.6667Z" fill="currentColor"/>
<path d="M10.6667 9V8C10.6667 7.82319 10.5964 7.65367 10.4714 7.52865C10.3463 7.40362 10.1768 7.33333 10 7.33333C9.82319 7.33333 9.65367 7.40362 9.52865 7.52865C9.40362 7.65367 9.33333 7.82319 9.33333 8V9C9.33333 9.36819 9.03486 9.66667 8.66667 9.66667C8.29848 9.66667 8 9.36819 8 9V8C8 7.46957 8.21086 6.96101 8.58594 6.58594C8.96101 6.21086 9.46957 6 10 6C10.5304 6 11.039 6.21086 11.4141 6.58594C11.7891 6.96101 12 7.46957 12 8V9C12 9.36819 11.7015 9.66667 11.3333 9.66667C10.9651 9.66667 10.6667 9.36819 10.6667 9Z" fill="currentColor"/>
<path d="M8 12H12V10H8V12ZM13.3333 12.0671C13.3333 12.7662 12.7662 13.3333 12.0671 13.3333H7.93294C7.23375 13.3333 6.66667 12.7662 6.66667 12.0671V9.93294C6.66667 9.23375 7.23375 8.66667 7.93294 8.66667H12.0671C12.7662 8.66667 13.3333 9.23375 13.3333 9.93294V12.0671Z" fill="currentColor"/>
</g>
</svg>
